<?xml version="1.0" standalone="no"?>
<!DOCTYPE svg PUBLIC "-//W3C//DTD SVG 1.1//EN" "http://www.w3.org/Graphics/SVG/1.1/DTD/svg11.dtd" >
<svg xmlns="http://www.w3.org/2000/svg">
<defs>
  <font id="scgicons" horiz-adv-x="1375">
    <font-face font-family="scgicons"
      units-per-em="1000" ascent="1000"
      descent="0" />
    <missing-glyph horiz-adv-x="0" />
    <glyph glyph-name="001computer"
      unicode="&#xE001;"
      horiz-adv-x="1000" d="M876.8749999999983 937.5H123.1249999999983A121.93750000000001 121.93750000000001 0 0 1 -1.7e-12 817.375V351.9375A121.6875 121.6875 0 0 1 123.1249999999983 231.8125H471.8749999999983V117.1249999999999H298.1249999999983A27.3125 27.3125 0 1 1 298.1249999999983 62.4999999999999H701.8749999999983A27.3125 27.3125 0 1 1 701.8749999999983 117.1249999999999H528.1249999999983V231.8125H876.8749999999983A121.99999999999999 121.99999999999999 0 0 1 999.9999999999982 351.9375V817.375A121.5625 121.5625 0 0 1 876.8749999999983 937.5H876.8749999999983zM123.1249999999983 882.9375H876.8749999999983A66.8125 66.8125 0 0 0 944.3749999999982 817.375V428.4375H56.2500000000057V817.375A66.25 66.25 0 0 0 123.1250000000057 882.9375H123.1250000000057zM876.8749999999983 286.4375H123.1249999999983A66.25 66.25 0 0 0 56.2499999999983 351.9375V373.8125H943.7499999999982V351.9375A66.375 66.375 0 0 0 876.8749999999982 286.4375H876.8749999999982zM876.8749999999983 286.4375" />
    <glyph glyph-name="002visialvision"
      unicode="&#xE002;"
      horiz-adv-x="1375" d="M686.8750000000006 843.75L677.5000000000006 834.4375V580.9375L926.8750000000006 843.75H686.8750000000006zM175.0000000000006 843.75H0V156.25H275.625L405 293.25V546.8125L175 303.625V843.75zM1135.0000000000007 843.75L623.1250000000007 303.625V843.75H448.1250000000008V156.25H723.7500000000008L1375 843.75H1135z" />
    <glyph glyph-name="003googleplus"
      unicode="&#xE003;"
      horiz-adv-x="1000" d="M526.1111111111113 196.7222222222274A87.55555555555557 87.55555555555557 0 0 1 523.3333333333335 221.0000000000052A188.5 188.5 0 0 1 517.7777777777779 242.5000000000053A66.66666666666667 66.66666666666667 0 0 1 507.2222222222225 263.3333333333385C502.2222222222224 270.6111111111163 498.3333333333335 276.777777777783 495.0000000000002 281.5555555555607A153.00000000000003 153.00000000000003 0 0 1 478.8888888888891 299.3888888888941C471.6666666666669 306.3333333333385 466.1111111111113 311.2222222222273 462.777777777778 314.6666666666719C458.3333333333335 318.277777777783 451.6666666666669 323.2222222222274 443.3333333333336 330.277777777783C433.8888888888892 336.8888888888941 427.7777777777781 341.3888888888941 424.4444444444447 343.6666666666718S414.4444444444447 350.9444444444496 404.4444444444447 357.8333333333385A220.38888888888889 220.38888888888889 0 0 1 386.1111111111114 370.1111111111162A216.66666666666666 216.66666666666666 0 0 1 356.1111111111114 371.5555555555607A481.7222222222222 481.7222222222222 0 0 1 292.777777777778 367.2777777777829A359.61111111111114 359.61111111111114 0 0 1 227.7777777777781 352.2222222222273A256.2222222222222 256.2222222222222 0 0 1 168.3333333333336 324.777777777783A147.83333333333334 147.83333333333334 0 0 1 127.2222222222225 279.8333333333384A126 126 0 0 1 111.6666666666669 215.0555555555607A122.22222222222223 122.22222222222223 0 0 1 132.777777777778 142.388888888894A149.44444444444446 149.44444444444446 0 0 1 188.3333333333336 91.777777777783A306.6111111111111 306.6111111111111 0 0 1 260.5555555555559 64.5555555555607A333.99999999999994 333.99999999999994 0 0 1 337.2222222222225 55.4444444444496A299.61111111111114 299.61111111111114 0 0 1 404.4444444444447 62.8333333333385A236.55555555555557 236.55555555555557 0 0 1 465.0000000000002 86.3888888888939A119.11111111111114 119.11111111111114 0 0 1 510.0000000000002 130.8333333333385A132.16666666666666 132.16666666666666 0 0 1 526.1111111111113 196.7222222222274zM454.4444444444446 714.6111111111163A319.00000000000006 319.00000000000006 0 0 1 444.4444444444447 791.1666666666719A392.55555555555554 392.55555555555554 0 0 1 416.1111111111113 869.6111111111163A177.05555555555551 177.05555555555551 0 0 1 365.5555555555558 932.388888888894A114.55555555555556 114.55555555555556 0 0 1 293.8888888888891 957.0555555555608A101.6111111111111 101.6111111111111 0 0 1 207.2222222222224 915.5000000000052A162.11111111111114 162.11111111111114 0 0 1 176.6666666666668 816.2222222222274A284.7777777777778 284.7777777777778 0 0 1 183.3333333333335 756.8333333333385A304.7777777777778 304.7777777777778 0 0 1 204.4444444444446 694.3333333333385A282.9444444444445 282.9444444444445 0 0 1 238.3333333333335 638.1111111111163A164.55555555555554 164.55555555555554 0 0 1 285.0000000000002 597.3333333333385A122.22222222222223 122.22222222222223 0 0 1 343.8888888888891 581.8333333333385A95.27777777777777 95.27777777777777 0 0 1 427.777777777778 618.1666666666717A159.38888888888894 159.38888888888894 0 0 1 454.4444444444446 714.6111111111157zM375.0000000000047 1000H638.333333333338L557.222222222227 952.5H475.5555555555603A175.22222222222223 175.22222222222223 0 0 0 541.6666666666714 877.0555555555555A232.61111111111111 232.61111111111111 0 0 0 565.0000000000048 775.3333333333333A217.7222222222222 217.7222222222222 0 0 0 551.6666666666715 696.3888888888889A173.00000000000003 173.00000000000003 0 0 0 517.7777777777826 640.8333333333334A454.05555555555566 454.05555555555566 0 0 0 478.3333333333381 601.9444444444445A212.33333333333334 212.33333333333334 0 0 1 445.0000000000049 565A63.05555555555555 63.05555555555555 0 0 1 430.5555555555603 524.5A53.99999999999999 53.99999999999999 0 0 1 440.5555555555603 494.0555555555556A137.44444444444449 137.44444444444449 0 0 1 466.6666666666714 465.0555555555557C477.222222222227 455.9444444444446 488.8888888888937 446.277777777778 502.2222222222269 436.1111111111112C514.4444444444491 426.2222222222223 527.222222222227 414.9444444444446 540.0000000000048 402.777777777778A241.33333333333334 241.33333333333334 0 0 0 575.0000000000047 363.277777777778A161.94444444444449 161.94444444444449 0 0 0 601.1111111111159 312.2777777777779A215.44444444444446 215.44444444444446 0 0 0 526.6666666666714 78.5555555555555A374.38888888888886 374.38888888888886 0 0 0 274.4444444444493 -0.2222222222222A450.7222222222221 450.7222222222221 0 0 0 202.222222222227 5.9444444444446A370.0555555555555 370.0555555555555 0 0 0 129.4444444444492 26.1666666666669A287.1111111111111 287.1111111111111 0 0 0 63.8888888888936 60.9444444444447A159.44444444444446 159.44444444444446 0 0 0 18.3333333333381 114.277777777778A142.77777777777777 142.77777777777777 0 0 0 4.7e-12 187.388888888889A181.61111111111111 181.61111111111111 0 0 0 22.222222222227 268.4444444444447A177.77777777777783 177.77777777777783 0 0 0 80.0000000000047 335.1111111111113A295 295 0 0 0 166.6666666666714 377.8888888888892A701.9444444444443 701.9444444444443 0 0 0 260.0000000000047 399.3888888888892A724.5555555555555 724.5555555555555 0 0 0 350.5555555555603 407.5000000000003A152 152 0 0 0 311.6666666666714 497.1111111111114A59.55555555555557 59.55555555555557 0 0 0 313.3333333333381 511.1111111111113A33.00000000000001 33.00000000000001 0 0 0 316.1111111111159 522.7222222222224C317.222222222227 526.0000000000002 318.8888888888937 530.5555555555558 320.5555555555603 535.8888888888891A69.72222222222221 69.72222222222221 0 0 1 325.0000000000048 548.7222222222224A325 325 0 0 0 282.7777777777826 545.7222222222224A217.7777777777778 217.7777777777778 0 0 0 129.4444444444492 604.7222222222224A193.61111111111111 193.61111111111111 0 0 0 65.5555555555603 752.2222222222224A224.38888888888889 224.38888888888889 0 0 0 122.7777777777826 903.277777777778A251.7777777777778 251.7777777777778 0 0 0 263.3333333333381 987.8888888888893A516.1666666666667 516.1666666666667 0 0 0 375.0000000000047 1000zM1000.0000000000045 846.3333333333333V769.5H845.5555555555602V615.4444444444443H768.8888888888936V769.5H615.5555555555603V846.3333333333334H768.8888888888936V1000H845.5555555555602V846.3333333333333H1000.000000000003z" />
    <glyph glyph-name="004flickr"
      unicode="&#xE004;"
      horiz-adv-x="1125" d="M0 499.8125000000044A245.9375 245.9375 0 1 1 246.25 749.0000000000044A247.68750000000003 247.68750000000003 0 0 1 0 499.8125000000044zM632.5 499.8125000000044A246.25 246.25 0 1 1 878.7499999999999 749.0000000000044A248.0625 248.0625 0 0 1 632.4999999999932 499.8125000000044z" />
    <glyph glyph-name="005play"
      unicode="&#xE005;"
      horiz-adv-x="817.3544445829697" d="M48.7302993692355 994.5602901178586A30.05412882028224 30.054397098821408 0 0 1 16.9989416404307 995.4669084315486A31.00606955214638 31.00634632819584 0 0 1 0.8159491987403 968.2683590208504V31.7316409791459A32.27532386129857 32.27561196736174 0 0 1 16.9989416404307 4.0797824116029A35.947095255631694 35.94741613780599 0 0 1 32.229993350257 0.4533091568433A31.232722107352124 31.233000906618308 0 0 1 48.9116214134001 4.9864007252929L803.347316671254 473.2547597461452A31.731357728804767 31.731640979147777 0 0 1 818.0797327596276 499.9999999999984A30.41677290861143 30.417044424297377 0 0 1 803.347316671254 526.2919310970065z" />
    <glyph glyph-name="006retry"
      unicode="&#xE006;"
      horiz-adv-x="1052.625" d="M220.5249374999987 286.3157894736901A388.15546874999995 388.157894736842 0 0 1 533.5229812499987 130.5263157894796A369.4713749999999 369.4736842105263 0 1 1 533.5229812499987 868.9473684210584C383.7344437499987 868.9473684210584 300.5244374999987 778.9473684210584 232.6827562499986 684.736842105269H399.9975000000013A63.9996 64 0 1 0 399.9975000000013 556.8421052631637H66.9469500000013A64.84169999999999 64.84210526315789 0 0 0 0.2631562500013 620.5263157894794V935.7894736842164A66.63116250000002 66.63157894736841 0 0 0 133.4202187500013 935.7894736842164V786.3157894736901C208.5776437500013 873.6842105263216 295.1560500000014 1000.0000000000058 533.4177187500013 1000.0000000000058A500.3652937499999 500.36842105263145 0 1 0 533.4177187500013 5.8e-12A519.99675 520 0 0 0 65.8416937500013 282.6315789473741A37.84186874999999 37.84210526315789 0 0 0 105.3151312500013 338.9473684210583H124.7886937500013A132.15706875 132.1578947368421 0 0 0 220.5249374999987 286.3157894736901z" />
    <glyph glyph-name="007fullscreen"
      unicode="&#xE007;"
      horiz-adv-x="1000" d="M283.1578947368456 999.4736842105282H40.0000000000035A39.99999999999999 39.99999999999999 0 0 1 3.5e-12 959.4736842105282V716.84210526316C3.5e-12 672.6315789473704 25.2631578947403 662.1052631578967 56.8421052631614 693.1578947368441L124.7368421052667 761.5789473684231L271.0526315789509 615.2631578947389A40.99999999999999 40.99999999999999 0 0 1 327.8947368421088 615.2631578947389L384.210526315793 672.1052631578968A39.42105263157894 39.42105263157894 0 0 1 384.210526315793 728.421052631581L238.4210526315825 874.7368421052652L306.8421052631614 943.1578947368442C337.8947368421024 974.2105263157868 327.3684210526256 999.4736842105282 283.1578947368456 999.4736842105282zM615.789473684214 271.0526315789495L762.1052631578982 125.2631578947389L693.6842105263192 56.8421052631601C662.1052631578982 25.263157894739 672.631578947372 2.2e-12 716.8421052631614 2.2e-12H960.0000000000036A39.99999999999999 39.99999999999999 0 0 1 1000.0000000000036 40.0000000000022V283.1578947368443C1000.0000000000036 327.3684210526337 974.7368421052666 337.8947368421075 943.6842105263194 306.8421052631601L875.2631578947404 238.4210526315811L728.9473684210562 384.2105263157916A40.05263157894737 40.05263157894737 0 0 1 672.1052631578983 384.2105263157916L615.7894736842142 327.8947368421074A40.05263157894737 40.05263157894737 0 0 1 615.7894736842167 271.0526315789537zM615.789473684214 672.1052631578968L672.1052631578982 615.2631578947389A40.99999999999999 40.99999999999999 0 0 1 728.9473684210561 615.2631578947389L875.2631578947403 761.5789473684231L943.6842105263192 693.1578947368441C974.7368421052666 662.1052631578966 1000.0000000000036 672.6315789473704 1000.0000000000036 716.84210526316V959.4736842105282A39.99999999999999 39.99999999999999 0 0 1 960.0000000000036 999.4736842105282H716.8421052631614C672.631578947372 999.4736842105282 662.1052631578982 974.2105263157916 693.6842105263192 943.1578947368442L762.1052631578982 874.7368421052652L615.789473684214 728.421052631581A39.42105263157894 39.42105263157894 0 0 1 615.7894736842167 672.1052631578885zM3.6e-12 283.1578947368442V40.000000000002A39.99999999999999 39.99999999999999 0 0 1 40.0000000000036 2e-12H283.1578947368457C327.3684210526352 2e-12 337.8947368421088 25.2631578947389 306.8421052631615 56.84210526316L238.4210526315826 125.2631578947388L384.2105263157931 271.0526315789495A39.99999999999999 39.99999999999999 0 0 1 384.2105263157931 327.8947368421074L327.8947368421089 384.2105263157916A40.05263157894737 40.05263157894737 0 0 1 271.0526315789509 384.2105263157916L124.7368421052667 238.4210526315811L56.8421052631615 306.8421052631601C25.2631578947415 337.8947368421024 0 327.3684210526256 0 283.1578947368456z" />
    <glyph glyph-name="008volume"
      unicode="&#xE008;"
      horiz-adv-x="1100" d="M463.4999999999962 147.4999999999938L286.9999999999963 304.9999999999938A134.55000000000004 134.55000000000004 0 0 1 201.4999999999963 337.4999999999938H99.4999999999962A14.500000000000004 14.500000000000004 0 0 0 84.9999999999962 351.9999999999937V648.9999999999936A14.500000000000004 14.500000000000004 0 0 0 99.4999999999962 663.4999999999936H201.9999999999963A134.05 134.05 0 0 1 287.4999999999963 695.4999999999936V695.9999999999936L463.4999999999962 852.4999999999936C468.9999999999962 857.9999999999936 473.9999999999962 855.9999999999936 473.9999999999962 847.9999999999936V151.9999999999936C474.0000000000038 144.4999999999936 469.0000000000083 142.4999999999841 463.4999999999962 147.4999999999938zM521.4999999999962 999.9999999999937A75.75000000000001 75.75000000000001 0 0 1 474.4999999999963 976.9999999999937L230.4999999999963 758.9999999999937A52.150000000000006 52.150000000000006 0 0 0 201.9999999999963 748.4999999999937H64.4999999999963A65 65 0 0 1 -0.5000000000037 683.9999999999939V317.4999999999937A65 65 0 0 1 64.4999999999963 252.4999999999938H201.4999999999963A48.35 48.35 0 0 0 229.4999999999963 241.9999999999938L474.4999999999964 22.9999999999937A75.75000000000001 75.75000000000001 0 0 1 521.4999999999964 -6.3e-12C544.4999999999965 -6.3e-12 559.4999999999965 21.4999999999937 559.4999999999965 60.4999999999938V939.4999999999937C559.4999999999999 978.999999999985 544.4999999999993 1000 521.5000000000032 1000zM713.4999999999962 708.9999999999937A34.7 34.7 0 0 1 664.4999999999962 708.9999999999937A34.10000000000001 34.10000000000001 0 0 1 664.4999999999962 660.4999999999937A225.00000000000006 225.00000000000006 0 0 0 664.4999999999962 340.9999999999938A34.10000000000001 34.10000000000001 0 0 1 664.4999999999962 292.4999999999938A32.80000000000001 32.80000000000001 0 0 1 688.9999999999961 282.4999999999938A34.400000000000006 34.400000000000006 0 0 1 713.4999999999961 292.4999999999938A293.95 293.95 0 0 1 713.4999999999962 709.0000000000032zM815.9999999999962 817.4999999999937A34.10000000000001 34.10000000000001 0 0 1 767.4999999999962 817.4999999999937A34.7 34.7 0 0 1 767.4999999999962 768.4999999999937A379.0500000000001 379.0500000000001 0 0 0 767.4999999999962 231.4999999999938A34.7 34.7 0 0 1 767.4999999999962 182.4999999999936A35.7 35.7 0 0 1 815.9999999999962 182.4999999999936A447.85 447.85 0 0 1 815.9999999999883 817.4999999999955zM921.4999999999964 927.9999999999937A34.449999999999996 34.449999999999996 0 0 1 872.4999999999962 879.4999999999937A535 535 0 0 0 872.4999999999962 120.4999999999938A34.55 34.55 0 0 1 872.4999999999962 71.9999999999938A36.90000000000001 36.90000000000001 0 0 1 897.4999999999962 61.9999999999938A34.55 34.55 0 0 1 921.4999999999964 71.9999999999938A602.35 602.35 0 0 1 921.4999999999947 927.9999999999972z" />
    <glyph glyph-name="009pause"
      unicode="&#xE009;"
      horiz-adv-x="999.9886324883482" d="M499.8976923951347 -3e-13A498.53359099693074 498.53359099693074 0 1 0 694.5435944071843 39.3315903148797A497.74923269296346 497.74923269296346 0 0 0 499.8976923951347 -3e-13zM499.8976923951347 919.7453677390016A419.68853018074344 419.68853018074344 0 1 1 919.5407525292713 500.0568375582581A420.0636580652495 420.0636580652495 0 0 1 499.8976923951347 919.7453677390026zM652.3814936910311 345.2313288621117A33.30680913947937 33.30680913947937 0 0 0 618.381266340798 312.9475957712854H580.8684778901899A33.295441627827664 33.295441627827664 0 0 0 546.8568830283052 345.2313288621118V654.8823462544046A33.295441627827664 33.295441627827664 0 0 0 580.8684778901899 687.1660793452311H618.381266340798A33.30680913947937 33.30680913947937 0 0 0 652.3814936910311 654.8823462544046V345.2313288621118zM453.0521768784814 345.2313288621117A33.27270660452427 33.27270660452427 0 0 0 419.0405820165967 312.9475957712854H381.5277935659886A33.26133909287257 33.26133909287257 0 0 0 347.5389337274072 345.2313288621118V654.8823462544046A33.26133909287257 33.26133909287257 0 0 0 381.5277935659886 687.1660793452311H419.0405820165967A33.27270660452427 33.27270660452427 0 0 0 453.0521768784814 654.8823462544046V345.2313288621118z" />
    <glyph glyph-name="010load"
      unicode="&#xE00A;"
      horiz-adv-x="1000" d="M1000 500A500 500 0 1 1 500 0A500 500 0 0 1 1000 500zM472.8571428571429 238.0952380952382L260.4761904761906 450.7619047619048C245.7142857142858 465.5714285714287 250.4761904761905 477.7142857142858 271.4285714285715 477.7142857142858H355.2380952380953A38.09523809523809 38.09523809523809 0 0 1 393.3333333333333 515.8095238095239V686.4285714285714A38.09523809523809 38.09523809523809 0 0 0 431.4285714285714 724.5238095238096H561.4285714285713A38.09523809523809 38.09523809523809 0 0 0 599.5238095238094 686.4285714285716V515.8571428571429A38.09523809523809 38.09523809523809 0 0 1 637.6190476190475 477.7619047619048H728.0952380952381C749.0476190476189 477.7619047619048 754.2857142857142 465.6190476190477 739.5238095238095 450.8095238095239L527.1428571428571 238.1428571428572A38.61904761904761 38.61904761904761 0 0 0 472.8571428571371 237.7619047619106z" />
    <glyph glyph-name="011share"
      unicode="&#xE00B;"
      horiz-adv-x="1000" d="M797.09695 86.167421C810.93195 92.610251 830.42295 107.7932509999999 843.42995 122.259951C892.8779499999999 177.258251 892.38195 249.8413510000001 842.1819499999999 304.767251C809.7099499999999 340.297551 780.3359499999999 352.954151 729.9809499999999 353.1121510000001C695.9369499999999 353.2167510000001 688.1249499999999 351.490051 662.1819499999999 338.1102510000001L632.8609499999999 322.988151L523.7639499999999 397.3888510000001L414.66695 471.7895510000001L415.55795 499.0679510000001L416.44895 526.346351L524.5319499999999 600.060151L632.6149499999999 673.774451L661.9329499999999 658.653751C687.8169499999999 645.304451 695.7739499999999 643.535851 729.8549499999999 643.557751C780.3109499999999 643.6047510000001 809.5709499999999 656.1863510000001 842.2549499999999 691.948151C907.42695 763.256451 884.5119499999998 868.937561 794.6219499999999 911.627361C756.4659499999999 929.747761 703.2679499999998 929.422461 665.4219499999999 910.836761C614.8639499999999 886.0086610000001 584.1289499999999 838.8392610000001 584.1289499999999 786.073351L584.1289499999999 756.798951L475.3289499999999 682.600451L366.5279499999999 608.4018510000001L337.2069499999999 623.5240510000001C311.3599499999999 636.854251 303.3259499999999 638.645751 269.4079499999999 638.642451C237.7789499999999 638.642451 226.2729499999999 636.4271510000001 204.7669399999999 626.213551C114.8759399999999 583.5237510000001 91.9619439999999 477.842651 157.1339399999999 406.5339510000001C189.8179399999999 370.7725510000002 219.0779399999999 358.1753510000001 269.5339499999999 358.1439510000002C303.6149499999999 358.1439510000002 311.5719499999999 359.8906510000002 337.4559499999999 373.2399510000002L366.7739499999999 388.3607510000002L474.8569499999999 314.6373510000002L582.9399499999998 240.9140510000002L583.6639499999999 210.8090510000002C584.9379499999999 157.7811510000001 614.8539499999999 110.9466510000002 662.67095 87.1183210000002C683.48195 76.7478210000002 693.4309499999999 74.9607210000002 730.1489499999999 75.0006210000001C765.2439499999999 75.0486210000001 777.6369499999998 77.1055210000002 797.0969499999999 86.1674210000001zM698.47795 179.119151C685.71195 190.5256510000001 683.05095 196.351951 683.05095 212.904051C683.05095 229.456151 685.7119499999999 235.282351 698.47795 246.688951C730.54095 275.336851 780.13995 254.816551 780.13995 212.904051C780.13995 170.943951 730.57695 150.438851 698.47795 179.119151zM243.51195 457.527351C220.04395 469.663151 211.54594 505.4578509999999 227.46795 525.113351C247.49195 549.833051 277.83495 552.720951 300.91095 532.1026509999999C343.40995 494.130251 294.81695 430.996751 243.51195 457.527351zM698.47795 749.946651C685.71195 761.353151 683.05095 767.179451 683.05095 783.731551C683.05095 800.283651 685.7119499999999 806.1098509999999 698.47795 817.516451C739.80395 854.4413609999999 800.35095 808.5320509999999 773.71295 760.470751C758.74595 733.466351 722.58395 728.4078509999999 698.47795 749.946651z" />
    <glyph glyph-name="012design"
      unicode="&#xE00C;"
      horiz-adv-x="1000" d="M74.2105263157953 804.6315789473653A103.89473684210525 103.89473684210525 0 0 1 0.5263157894795 715.1578947368389A68.42105263157895 68.42105263157895 0 0 1 74.2105263157953 646.4210526315758A172.6315789473684 172.6315789473684 0 0 1 181.5789473684269 701.4210526315758S595.2631578947426 911.9473684210494 845.2631578947426 880.3684210526284A2529.0526315789475 2529.0526315789475 0 0 1 127.8947368421111 364.5789473684178A47.368421052631575 47.368421052631575 0 0 1 161.5789473684269 288.9473684210494S181.0526315789532 281.1578947368388 242.1052631579006 330.2105263157863C242.1052631579006 330.2105263157863 592.6315789473741 510.7894736842073 798.4210526315846 460.8421052631547C798.4210526315846 460.8421052631547 443.1578947368479 272.6842105263127 222.1052631579006 27.6842105263127C222.1052631579006 27.6842105263127 200.5263157894795 0.2105263157863 228.4210526315848 0.2105263157863C228.4210526315848 0.2105263157863 619.4736842105322 320.7894736842075 885.2631578947428 440.2105263157863C885.2631578947428 440.2105263157863 974.736842105269 540.7894736842073 717.8947368421111 536.4210526315758A848.2631578947368 848.2631578947368 0 0 1 328.9473684210585 433.315789473681C155.7894736842164 329.2631578947336 322.6315789473743 440.2105263157863 322.6315789473743 440.2105263157863A4277.052631578947 4277.052631578947 0 0 0 945.7894736842164 825.2105263157863S1058.4210526315846 861.6315789473653 958.9473684210584 962.6842105263127C958.9473684210504 962.7368421052652 753.684210526302 1118.5789473684194 74.2105263157953 804.6315789473653z" />
    <glyph glyph-name="013menuhor"
      unicode="&#xE00D;"
      horiz-adv-x="1000" d="M875 625A125 125 0 1 0 750 500A125 125 0 0 0 875 625zM500 625A125 125 0 1 0 375 500A125 125 0 0 0 500 625zM125 625A125 125 0 1 0 0 500A125 125 0 0 0 125 625z" />
    <glyph glyph-name="014modified"
      unicode="&#xE00E;"
      horiz-adv-x="1166.7083385423177" d="M611.1329392364477 722.2222222222167V444.4444444444389L848.9192101393581 303.3333333333277L888.9206388893805 370.55555555555L694.4692491323276 486.1111111111055V722.2222222222167H611.1329392364477zM666.6904791670343 999.9999999999944A500.01785937527904 499.99999999999994 0 0 1 166.6726197917552 499.9999999999944H-4.5e-12L216.1188303299773 283.8888888888834L220.0078581251183 276.1111111111055L444.4603194446944 499.9999999999985H277.7876996529347A390.79173587174586 390.7777777777777 0 1 0 392.236231909943 225.5555555555541L313.3445252085101 146.6666666666652A500.01785937527904 499.99999999999994 0 1 1 666.6904791670415 1000z" />
    <glyph glyph-name="015pen"
      unicode="&#xE00F;"
      horiz-adv-x="725.4228665903598" d="M724.729213055657 615.0289017341061L398.5733210392233 1e-13V393.0635838150352A30.844460509706767 30.84393063583815 0 0 0 409.9954825773006 403.976878612723A113.57420541505219 113.57225433526008 0 1 1 326.0634048784734 393.0635838150352V1e-13L-0.0924871379622 615.0289017341061C247.8655297331738 854.2890173410424 239.5416873167612 1000.0000000000018 239.5416873167612 1000.0000000000018H485.1412821699135S476.8636833224834 854.1502890173479 724.729213055657 615.0289017341061z" />
    <glyph glyph-name="016layer"
      unicode="&#xE010;"
      horiz-adv-x="989.874546265045" d="M332.2273681827133 175.141242937858A38.02044456063634 38.01982032045939 0 0 0 280.0823979326809 189.6823191627353A1336.133820296565 1336.1118829304435 0 0 1 0.6020289638133 613.0869686023944A381.17695393251864 381.17069556358246 0 0 0 741.5607536534375 744.836528665375A377.5184702293635 377.5122719273873 0 0 0 801.7636500344695 717.4678151338385A38.99295288679147 38.99231267944799 0 0 0 816.1660352456241 664.6753727887426A38.06675448092945 38.06612948041122 0 0 0 763.9747550752987 650.180605723817C763.3264161911952 650.5047698434801 762.6317673867987 650.6900064832873 762.0297384229884 651.0141706029502A378.30573887434633 378.29952764656844 0 0 0 765.7808419667297 613.0869686023946A384.69650787479435 384.69019171992227 0 0 0 383.168280505125 226.0813188848805A370.4793623448122 370.4732796147078 0 0 0 345.7035549880058 229.8786700009312C346.0277244300575 229.2766509215573 346.1666541909368 228.5357043623279 346.5371335532816 227.933685282954A38.94664296649837 38.94600351949616 0 0 0 332.2273681827133 175.141242937858zM569.5193997645654 33.1110493655694A38.251994162101845 38.25136612021858 0 0 0 523.2094794714639 4.4919885153332A377.05537102643245 377.0491803278688 0 0 0 382.7051813021939 71.5013429656435A38.99295288679147 38.99231267944799 0 0 0 375.1566642944184 125.6830601092945A37.97413464034324 37.97351116050754 0 0 0 428.7372420735368 133.3240715013479A301.8480604704357 301.8431045660832 0 0 1 541.038798784308 79.7443734370709A38.66878344473977 38.66814855978512 0 0 0 569.5193997645624 33.0184310456613zM823.0199034490031 57.4233583402847A377.10168094672565 377.09548948782066 0 0 0 678.5792620548195 -0.4630915995134A38.715093365032864 38.71445771973696 0 0 0 665.5198645321648 75.8080948411646A301.0144819051599 301.00953968695006 0 0 1 780.9241859025738 122.117254793003A37.97413464034324 37.97351116050754 0 0 0 833.9027347178819 111.0956747244654A38.99295288679147 38.99231267944799 0 0 0 823.019903449003 57.4233583402802zM864.6988317127946 621.2373807539182A37.97413464034324 37.97351116050754 0 0 0 918.279409491913 613.6426785218166A385.5300864400702 385.5237565990553 0 0 0 984.6415252719274 471.5661757895762A38.76140328532597 38.7607668796888 0 0 0 956.3461639728424 424.886542558123A38.20568424180875 38.205056960266745 0 0 0 910.0362436797408 453.4592942484073A308.5629989129354 308.55793275909974 0 0 1 857.0113849441398 567.0556636102672A38.94664296649837 38.94600351949616 0 0 0 864.9303813142587 621.1447624340095zM989.7356165041685 314.6244327127956A385.7616360415356 385.7553023988145 0 0 0 932.6354847827744 168.4727239047934A38.06675448092945 38.06612948041122 0 0 0 879.6106260471732 157.4048346763041A38.99295288679147 38.99231267944799 0 0 0 868.6814848580013 211.030841900533A309.30395763762505 309.2988793183292 0 0 1 914.3430662669994 327.7762341391177A38.251994162101845 38.25136612021858 0 1 0 989.8282363447548 314.62443271279zM493.2932709621204 665.9257201074423A304.9045152097804 304.8995091229045 0 0 1 426.0049567762439 624.4790219505469L623.9335561089597 424.2382143187973A309.81336676084914 309.8082800777994 0 0 1 664.9178355683546 492.2663702880481zM371.9149698739014 569.6952857275219A307.6831104273665 307.67805872001486 0 0 1 330.9306904145065 501.6671297582712L502.5552550207407 328.0540890988289A304.9045152097804 304.8995091229045 0 0 1 569.8435692066172 369.7323330554834zM309.9059866014385 413.5407983699227A304.4414160068494 304.4364175233861 0 0 1 306.6179822606282 381.1243864036357A313.7960199060559 313.7908678336575 0 0 1 315.0926976742658 312.0311197554927A300.31983310076333 300.3149022876725 0 0 1 383.1219705848319 303.6954709641617A296.38348987584976 296.3786236917663 0 0 1 415.538914790003 306.9834213207422zM680.9873779100608 682.1339260905856A301.0144819051599 301.00953968695006 0 0 1 612.7265553980292 690.7474298416276A285.3617288460916 285.35704362322866 0 0 1 580.3096111928581 687.4131703250953L685.8036096205434 580.9021024358668A293.0028656944533 292.99805501528203 0 0 1 689.0916139613536 613.5500602019129A308.93347827528027 308.9284060387145 0 0 1 681.0799977506443 681.9023802908282z" />
    <glyph glyph-name="017text"
      unicode="&#xE011;"
      horiz-adv-x="1076.0308457077306" d="M1033.3003789106765 826.1629600854603A43.410269677920176 43.410702146256185 0 0 0 990.0843386272884 869.8650092259867V913.0814800427338H128.6769738775078V869.6222200640992A42.97325354022299 42.97368165485092 0 1 0 42.7304667970618 869.6222200640992V956.2979508594732A42.97325354022299 42.97368165485092 0 0 0 85.4609335941197 999.7572108381078H1033.3003789106765A43.410269677920176 43.410702146256185 0 0 0 1076.5164191940646 956.2979508594732V869.3794309022041A43.410269677920176 43.410702146256185 0 0 0 1033.3003789106765 826.1629600854603zM559.3806562523981 0.6798096532957A43.361712329287165 43.36214431387782 0 0 0 516.16461596901 44.1390696319303V956.2979508594732A43.216040283388104 43.21647081674273 0 1 0 602.5966965357862 956.2979508594732V43.7506069729044A43.361712329287165 43.36214431387782 0 0 0 559.3806562523931 0.5341361561649zM42.7304667970618 522.1423715645319A43.361712329287165 43.36214431387782 0 0 0 -0.4855734863263 565.5530737107881V652.5201515004355A43.361712329287165 43.36214431387782 0 0 0 42.7304667970618 695.9308536466917H559.3806562523981A43.4588270265532 43.45925997863455 0 0 0 559.3806562523981 609.0608915218011H85.4609335941197V565.3588423812746A42.92469619158997 42.925123822472564 0 0 0 42.7304667970694 521.9966980673972zM344.2716018081181 0.6798096532957A43.361712329287165 43.36214431387782 0 0 0 301.05556152473 44.1390696319303V652.3744780033002A42.97325354022299 42.97368165485092 0 1 0 387.002068605176 652.3744780033002V43.9933961347949A42.97325354022299 42.97368165485092 0 0 0 344.2716018081194 0.5341361561649zM430.218108888564 0.6798096532957H257.8395212413419A43.70161376971831 43.70204914052636 0 0 0 257.8395212413419 87.5983296105648H430.218108888564A43.70161376971831 43.70204914052636 0 0 0 430.2181088885622 0.5341361561649zM645.3271633328442 0.6798096532957H473.4341491719522A43.70161376971831 43.70204914052636 0 0 0 473.4341491719522 87.5983296105648H645.3271633328442A43.70161376971831 43.70204914052636 0 0 0 645.3271633328361 0.5341361561649z" />
    <glyph glyph-name="018search"
      unicode="&#xE012;"
      horiz-adv-x="1040.6729685196426" d="M547.3506200676433 52.1203711733582A502.991934784494 502.991934784494 0 0 1 896.6264851270483 190.8767669759773A461.6685456595265 461.6685456595265 0 0 1 896.6264851270483 862.2842771659H896.6264851270483A508.6722747376637 508.6722747376637 0 0 1 198.1614777556149 862.2842771659A461.5818229121499 461.5818229121499 0 0 1 198.1614777556149 190.8767669759773A502.64504379498743 502.64504379498743 0 0 1 547.3506200676433 52.1203711733582zM547.3506200676433 891.1195906686318A386.4799236839823 386.4799236839823 0 0 0 815.6274390772696 784.4939727690568H815.6274390772696A354.7827595178216 354.7827595178216 0 0 0 815.6274390772696 268.4936258780673A390.85942242650236 390.85942242650236 0 0 0 279.1605238053938 268.4936258780673A354.6093140230683 354.6093140230683 0 0 0 279.1605238053938 784.4939727690569A386.21975544185244 386.21975544185244 0 0 0 547.3506200676433 891.1195906686326zM80.6955164339602 0.4336137368826L279.1605238053937 190.8767669759773L198.1614777556149 268.7104327465088L-0.3035296158187 78.2672795074142z" />
    <glyph glyph-name="019filters"
      unicode="&#xE013;"
      horiz-adv-x="1133.3333333333335" d="M570.6666666666631 0A38.266666666666666 38.266666666666666 0 0 0 531.9999999999964 37.8666666666667V174.2666666666667A38.66666666666667 38.66666666666667 0 0 0 609.3333333333297 174.2666666666667V37.8666666666667A38.266666666666666 38.266666666666666 0 0 0 570.6666666666631 0zM570.6666666666631 439.4000000000001A38.266666666666666 38.266666666666666 0 0 0 531.9999999999964 477.2666666666668V962.1333333333334A38.66666666666667 38.66666666666667 0 0 0 609.3333333333297 962.1333333333334V477.2666666666668A38.266666666666666 38.266666666666666 0 0 0 570.6666666666631 439.4000000000007zM566.666666666663 162.8666666666668A162.93333333333334 162.93333333333334 0 1 0 732.6666666666631 325.7333333333335A164.80000000000004 164.80000000000004 0 0 0 566.6666666666667 162.8666666666675zM566.666666666663 412.8666666666668A87.13333333333334 87.13333333333334 0 1 1 655.3333333333297 325.7333333333335A88.13333333333335 88.13333333333335 0 0 1 566.6666666666667 412.8666666666676zM169.3333333333309 0A38.266666666666666 38.266666666666666 0 0 0 130.6666666666643 37.8666666666667V462.1333333333333A38.66666666666667 38.66666666666667 0 0 0 207.9999999999976 462.1333333333333V37.8666666666666A38.266666666666666 38.266666666666666 0 0 0 169.3333333333309 0zM169.3333333333309 727.2666666666669A38.266666666666666 38.266666666666666 0 0 0 130.6666666666643 765.1333333333334V962.1333333333334A38.66666666666667 38.66666666666667 0 0 0 207.9999999999976 962.1333333333334V765.1333333333334A38.266666666666666 38.266666666666666 0 0 0 169.3333333333309 727.2666666666662zM165.9999999999976 450.7333333333335A162.93333333333334 162.93333333333334 0 1 0 331.333333333331 613.6666666666667A164.33333333333331 164.33333333333331 0 0 0 165.9999999999855 450.7333333333331zM165.9999999999976 700.7333333333336A87.13333333333334 87.13333333333334 0 1 1 254.6666666666643 613.6666666666667A87.73333333333335 87.73333333333335 0 0 1 165.9999999999855 700.7333333333331zM971.3333333333442 0A38.266666666666666 38.266666666666666 0 0 0 932.6666666666777 37.8666666666667V537.8666666666668A38.66666666666667 38.66666666666667 0 0 0 1010.000000000011 537.8666666666668V37.8666666666667A38.266666666666666 38.266666666666666 0 0 0 971.3333333333442 0zM971.3333333333442 803.0000000000001A38.333333333333336 38.333333333333336 0 0 0 932.6666666666777 840.9333333333334V962.1333333333334A38.66666666666667 38.66666666666667 0 0 0 1010.000000000011 962.1333333333334V840.9333333333334A38.333333333333336 38.333333333333336 0 0 0 971.3333333333442 802.9999999999993zM968.000000000011 526.5333333333334A162.8666666666667 162.8666666666667 0 1 0 1133.3333333333444 689.4000000000001A164.33333333333331 164.33333333333331 0 0 0 967.9999999999987 526.6666666666672zM968.000000000011 776.5333333333334A87.13333333333334 87.13333333333334 0 1 1 1056.6666666666777 689.4000000000001A88.26666666666668 88.26666666666668 0 0 1 967.9999999999987 776.5333333333332z" />
    <glyph glyph-name="020tags"
      unicode="&#xE014;"
      horiz-adv-x="1305.3846153846152" d="M503.0769230769203 0A44.30769230769231 44.30769230769231 0 0 0 470.7692307692279 13.0000000000001L12.3076923076895 457.923076923077A42.6923076923077 42.6923076923077 0 0 0 12.3076923076895 520.8461538461538L493.0769230769203 988A47.53846153846153 47.53846153846153 0 0 0 558.4615384615356 988A43.92307692307692 43.92307692307692 0 0 0 558.4615384615356 925.076923076923L109.2307692307664 489.3846153846155L535.3846153846125 75.9230769230771A43.92307692307692 43.92307692307692 0 0 0 535.3846153846125 13.0000000000002A46.92307692307691 46.92307692307691 0 0 0 503.0769230769203 0zM800.769230769228 0A46.92307692307691 46.92307692307691 0 0 0 768.4615384615357 13.0000000000001A43.92307692307692 43.92307692307692 0 0 0 768.4615384615357 75.923076923077L1194.615384615382 489.3846153846154L745.3846153846127 925.076923076923A43.92307692307692 43.92307692307692 0 0 0 745.3846153846127 988A46.53846153846153 46.53846153846153 0 0 0 809.9999999999973 988L1291.5384615384587 520.8461538461538A43.92307692307692 43.92307692307692 0 0 0 1291.5384615384587 457.9230769230769L833.0769230769201 13.0000000000001A46.92307692307691 46.92307692307691 0 0 0 800.7692307692196 0z" />
  </font>
</defs>
</svg>
